# xmcd
#
# Track frame offsets:
#	150
#	27161
#	59101
#	92557
#	124407
#	149417
#	184361
#	222308
#	257622
#
# Disc length: 3848 seconds
#
# Revision: 0
# Processed by: cddbd v1.5.2PL0 Copyright (c) Steve Scherf et al.
# Submitted via: audiograbber 1.83.01
#
DISCID=8d0f0609
DTITLE=Grateful Dead - 93-09-21 Madison Square Garden, New York NY
DYEAR=1900
DGENRE=
TTITLE0=Hell In A Bucket
TTITLE1=Bertha
TTITLE2=The Same Thing
TTITLE3=Peggy-O
TTITLE4=Broken Arrow
TTITLE5=Tennessee Jed
TTITLE6=The Music Never Stopped
TTITLE7=Here Comes Sunshine
TTITLE8=Way To Go Home
EXTD=
EXTT0=
EXTT1=
EXTT2=
EXTT3=
EXTT4=
EXTT5=
EXTT6=
EXTT7=
EXTT8=
PLAYORDER=
